<svg xmlns="http://www.w3.org/2000/svg" width="2249.928" height="2157.298" viewBox="0 0 2249.928 2157.298">
  <g id="background" transform="translate(0.948 -1.153)">
    <path id="Контур_16" data-name="Контур 16" d="M734.754,37.746C810.7-15.911,917.925-13.507,996.52,43.613l677.312,492.25c73.03,53.076,105.115,141.765,80.373,222.168l-239.882,779.544c-25.891,84.139-108.031,140.074-202.584,137.955L497.2,1657.273c-94.553-2.119-179.454-61.8-209.395-147.188L10.4,718.948c-28.611-81.6-.731-168.944,69.84-218.8Z" transform="matrix(0.951, -0.309, 0.309, 0.951, 0, 564.656)" fill="#ffa000" opacity="0.69"/>
    <path id="Контур_17" data-name="Контур 17" d="M734.754,37.746C810.7-15.911,917.925-13.507,996.52,43.613l677.312,492.25c73.03,53.076,105.115,141.765,80.373,222.168l-239.882,779.544c-25.891,84.139-108.031,140.074-202.584,137.955L497.2,1657.273c-94.553-2.119-179.454-61.8-209.395-147.188L10.4,718.948c-28.611-81.6-.731-168.943,69.84-218.8Z" transform="matrix(0.951, -0.309, 0.309, 0.951, 20, 557.656)" fill="#ff6f00" opacity="0.28"/>
    <path id="Контур_18" data-name="Контур 18" d="M734.754,37.746C810.7-15.911,917.925-13.507,996.52,43.613l677.312,492.25c73.03,53.076,105.115,141.765,80.373,222.168l-239.882,779.544c-25.891,84.139-108.031,140.074-202.584,137.955L497.2,1657.273c-94.553-2.119-179.454-61.8-209.395-147.188L10.4,718.948c-28.611-81.6-.731-168.943,69.84-218.8Z" transform="matrix(0.951, -0.309, 0.309, 0.951, 55, 546.656)" fill="#ffc400" opacity="0.59"/>
    <g id="background-2" data-name="background" transform="translate(174.259 643.274)">
      <path id="Многоугольник_6" data-name="Многоугольник 6" d="M269.647,23.188a50,50,0,0,1,60.706,0L572.285,208.007A50,50,0,0,1,589.7,262.5l-93.4,302.26A50,50,0,0,1,448.528,600H151.472A50,50,0,0,1,103.7,564.762L10.3,262.5a50,50,0,0,1,17.418-54.495Z" transform="matrix(0.766, 0.643, -0.643, 0.766, 385.673, 0)" fill="#ffc400" opacity="0.4"/>
      <path id="Многоугольник_7" data-name="Многоугольник 7" d="M269.647,23.188a50,50,0,0,1,60.706,0L572.285,208.007A50,50,0,0,1,589.7,262.5l-93.4,302.26A50,50,0,0,1,448.528,600H151.472A50,50,0,0,1,103.7,564.762L10.3,262.5a50,50,0,0,1,17.418-54.495Z" transform="translate(990.457 557.842) rotate(60)" fill="#ffc400" opacity="0.4"/>
      <path id="Многоугольник_8" data-name="Многоугольник 8" d="M269.647,23.188a50,50,0,0,1,60.706,0L572.285,208.007A50,50,0,0,1,589.7,262.5l-93.4,302.26A50,50,0,0,1,448.528,600H151.472A50,50,0,0,1,103.7,564.762L10.3,262.5a50,50,0,0,1,17.418-54.495Z" transform="translate(1414.997 41.363) rotate(88)" fill="#ffc400" opacity="0.4"/>
    </g>
  </g>
</svg>
